<svg width="229" height="20" viewBox="0 0 229 20" fill="none" xmlns="http://www.w3.org/2000/svg">
<path d="M25.6387 13.4459L25.6183 13.5888C25.5096 14.2802 25.3126 14.9548 25.0323 15.5962C24.787 16.1746 24.4537 16.7117 24.0442 17.1884C23.6894 17.6021 23.2622 17.948 22.7836 18.2091C22.3461 18.4454 21.8567 18.5694 21.3594 18.5698H19.6013V9.96875H20.2623C20.6139 9.96702 20.9606 10.051 21.2723 10.2135C21.5841 10.376 21.8514 10.6119 22.051 10.901C22.4903 11.5878 22.7058 12.3937 22.6677 13.2077V13.5718H23.0084V5.96083H22.6677V6.3487C22.708 7.15981 22.4923 7.96308 22.051 8.64525C21.8498 8.93177 21.5819 9.16512 21.2702 9.32516C20.9586 9.4852 20.6127 9.56712 20.2623 9.56387H19.6013V0.830156H20.7324C21.2151 0.861294 21.6865 0.988543 22.1192 1.20441C22.5776 1.43311 22.9863 1.7499 23.3219 2.13664C23.7008 2.56887 24.0132 3.05507 24.2486 3.57922C24.5228 4.1872 24.7142 4.82915 24.8176 5.48791L24.9539 6.33509H25.3253L24.4633 0.411672H9.65583V0.677053H9.90797C10.2708 0.667186 10.6251 0.787943 10.9063 1.01728C11.1823 1.26119 11.3871 1.57506 11.4991 1.9257C11.6462 2.35724 11.7199 2.81035 11.7172 3.26621C11.7179 3.81404 11.6677 4.36076 11.5672 4.89931L9.42074 14.715L7.05618 3.88202C6.97217 3.4426 6.91641 2.99826 6.88924 2.55172C6.86395 2.21847 6.89739 1.88337 6.98804 1.56165C7.0573 1.30742 7.21261 1.085 7.42757 0.932226C7.68582 0.773813 7.98308 0.690179 8.28616 0.690661H8.62688V0.425282H0V0.690661H0.490629C0.850474 0.698384 1.20235 0.797942 1.51277 0.979858C1.81405 1.17556 2.0678 1.43592 2.25553 1.74197C2.48282 2.11751 2.6625 2.5198 2.79045 2.93959C2.94036 3.4091 3.08687 3.96028 3.22997 4.55908L6.37817 18.9713H8.93693L12.0817 4.55908C12.2199 4.0444 12.3929 3.5397 12.5996 3.04846C12.7764 2.61208 13.0052 2.19856 13.281 1.81682C13.5169 1.49089 13.8116 1.21168 14.1498 0.993467C14.2582 0.927755 14.3722 0.871956 14.4906 0.826754C14.5514 0.849836 14.6107 0.87712 14.6677 0.90841C14.9349 1.06196 15.1524 1.28863 15.2947 1.56165C15.4673 1.89861 15.5825 2.26197 15.6354 2.63678C15.7063 3.12934 15.745 3.626 15.7512 4.12359V14.9259C15.756 15.4668 15.7298 16.0075 15.6728 16.5454C15.6379 16.9497 15.539 17.3458 15.3798 17.7192C15.2569 18.0084 15.0535 18.2564 14.7938 18.4337C14.4986 18.6075 14.1621 18.6991 13.8194 18.6991H13.3696V18.9644H25.2094L26.0714 12.7008H25.7307L25.6387 13.4459Z" fill="#FAFAFA"/>
<path d="M38.3575 12.7008L38.1428 14.2012C37.9505 15.3974 37.4184 16.5133 36.6096 17.4164C36.2316 17.7971 35.7782 18.0949 35.2783 18.2906C34.7784 18.4862 34.2432 18.5756 33.7068 18.5528H32.9844V4.48083C32.9814 3.93999 33.0075 3.39937 33.0628 2.86133C33.0983 2.45824 33.1936 2.06265 33.3456 1.68754C33.4654 1.39666 33.665 1.14547 33.9214 0.962848C34.2147 0.780125 34.5536 0.683449 34.8992 0.683859H35.349V0.418478H26.7903V0.683859H27.0833C27.4474 0.66888 27.8087 0.752337 28.1293 0.925422C28.4045 1.09832 28.6244 1.34624 28.763 1.63991C28.9367 2.013 29.0428 2.41385 29.0765 2.82391C29.1318 3.37445 29.1579 3.92753 29.1548 4.48083V15.29C29.1472 15.7748 29.1108 16.2588 29.0458 16.7393C29.0014 17.1089 28.8967 17.4686 28.7357 17.8043C28.6043 18.0717 28.4015 18.2977 28.1497 18.4575C27.8641 18.6128 27.5447 18.6958 27.2196 18.6991H26.7903V18.9644H37.8771L38.7152 12.7008H38.3575Z" fill="#FAFAFA"/>
<path d="M79.0696 2.37821C78.449 1.69842 77.6744 1.17694 76.8106 0.857376C76.0163 0.570132 75.1784 0.421662 74.3336 0.418478H62.7221V0.683859H63.0151C63.4127 0.669593 63.8062 0.767723 64.1504 0.966956C64.4946 1.16619 64.7754 1.45842 64.9606 1.81002C65.4387 2.73927 65.6643 3.77752 65.6148 4.82106V13.3064L58.7766 0.418478H54.0271V0.683859H54.3201C54.6571 0.675145 54.9935 0.716421 55.3184 0.806341C55.5665 0.879574 55.7833 1.03269 55.9351 1.24184C56.1155 1.49136 56.2324 1.78093 56.2758 2.08561C56.3424 2.53633 56.3788 2.99098 56.3848 3.44653V14.2489C56.3877 14.837 56.3317 15.424 56.2179 16.001C56.1232 16.4906 55.9579 16.9639 55.7273 17.4062C55.5324 17.778 55.2551 18.1003 54.9164 18.3486C54.653 18.5391 54.3438 18.6565 54.0203 18.6889C53.7781 18.6694 53.5384 18.6261 53.3048 18.5596C53.0505 18.485 52.8172 18.3522 52.6234 18.1717C52.412 17.977 52.2367 17.7467 52.1055 17.4912C51.933 17.1484 51.7982 16.7879 51.7034 16.4161L47.758 0.425283H42.3645V0.690662H42.5962C43.85 0.690662 44.4951 1.34391 44.5314 2.65039L41.5433 15.1266C41.4117 15.6244 41.2479 16.1131 41.0527 16.5896C40.8928 16.9969 40.676 17.3794 40.4088 17.726C40.1746 18.027 39.8783 18.2742 39.54 18.4507C39.1854 18.6258 38.794 18.7133 38.3986 18.7059H38.1805V18.9713H43.9079V18.7059H43.6319C43.2741 18.7078 42.9239 18.6023 42.6268 18.4031C42.368 18.2117 42.1741 17.9457 42.0715 17.641C41.9458 17.2755 41.8859 16.8908 41.8943 16.5046C41.8992 16.0175 41.9517 15.5321 42.051 15.0552L42.4428 13.4459H46.9164L47.6796 16.6135C47.8227 17.4334 47.7648 17.9744 47.5126 18.267C47.2605 18.5596 46.7222 18.6923 45.9011 18.6923H45.5604V18.9576H59.7477V18.6923H59.3184C58.9393 18.679 58.5737 18.5482 58.2724 18.318C57.9527 18.0667 57.6864 17.7545 57.4888 17.3994C57.2617 16.9823 57.0975 16.534 57.0015 16.0691C56.8873 15.532 56.8257 14.985 56.8175 14.436V5.66483L63.9725 18.9644H66.0816V4.65095C66.0625 3.66349 66.2909 2.68693 66.7459 1.81002C66.9072 1.5024 67.1427 1.23984 67.4313 1.04616C67.7199 0.852472 68.0523 0.733788 68.3984 0.70087C68.6433 0.72092 68.8819 0.789141 69.1003 0.901606C69.3719 1.05267 69.5934 1.27973 69.7374 1.55485C69.9061 1.89185 70.0145 2.2557 70.0577 2.62998C70.121 3.12324 70.1574 3.61958 70.1667 4.11679V14.9259C70.1698 15.4668 70.1436 16.0074 70.0884 16.5454C70.0514 16.9483 69.9562 17.3437 69.8056 17.7192C69.685 18.0098 69.4811 18.2584 69.2195 18.4337C68.9187 18.6061 68.5783 18.6975 68.2315 18.6991H67.8192V18.9644H74.3336C75.18 18.9595 76.0191 18.8087 76.814 18.5187C77.6771 18.2011 78.4517 17.682 79.073 17.0047C79.8132 16.1777 80.3746 15.2071 80.722 14.1536C81.1907 12.7098 81.4096 11.1968 81.3694 9.67956C81.4105 8.16673 81.1915 6.65806 80.722 5.21913C80.3728 4.16871 79.8103 3.20156 79.0696 2.37821ZM42.5587 12.9696L44.6677 4.12359L46.7971 12.9696H42.5587ZM76.9299 13.9903C76.8335 14.9169 76.6335 15.8299 76.3336 16.7121C76.1643 17.2579 75.854 17.7495 75.4342 18.1377C75.1266 18.3989 74.7373 18.5445 74.3336 18.5494H73.9929V0.830157H74.3336C74.7385 0.834226 75.1291 0.979901 75.4375 1.24184C75.8553 1.6263 76.1654 2.11299 76.337 2.65379C76.6385 3.53556 76.8385 4.44871 76.9333 5.37564C77.0921 6.80916 77.1638 8.25098 77.1479 9.69316C77.1622 11.1297 77.0894 12.5659 76.9299 13.9937V13.9903Z" fill="#FAFAFA"/>
<path d="M83.1409 0.683859H83.4339C83.7876 0.668616 84.1394 0.743552 84.4561 0.901606C84.7267 1.05288 84.947 1.27997 85.0898 1.55485C85.2625 1.8918 85.3776 2.25517 85.4305 2.62998C85.4998 3.12272 85.5385 3.61927 85.5464 4.11678V14.9259C85.5494 15.4668 85.5233 16.0074 85.468 16.5454C85.433 16.9497 85.3341 17.3458 85.175 17.7192C85.0491 18.0127 84.8378 18.2616 84.5685 18.4337C84.265 18.6055 83.9225 18.6968 83.5736 18.6991H83.1614V18.9644H91.7099V18.6991H91.2806C90.9369 18.6986 90.5994 18.607 90.3027 18.4337C90.0451 18.2568 89.8449 18.0084 89.7269 17.7192C89.5749 17.3441 89.4796 16.9485 89.4441 16.5454C89.3889 16.0074 89.3627 15.4668 89.3658 14.9259V4.11678C89.3623 3.63221 89.3919 3.14796 89.4544 2.6674C89.4986 2.29868 89.6009 1.93927 89.7576 1.60248C89.8862 1.32942 90.0908 1.0991 90.347 0.939032C90.6323 0.775266 90.955 0.687402 91.284 0.683859H91.7099V0.418478H83.1409V0.683859Z" fill="#FAFAFA"/>
<path d="M107.042 18.5494C106.788 18.4748 106.555 18.342 106.361 18.1615C106.149 17.9669 105.974 17.7365 105.843 17.4811C105.67 17.1382 105.536 16.7778 105.441 16.4059L101.495 0.415102H96.0984V0.680481H96.3301C97.5839 0.680481 98.229 1.33372 98.2653 2.64021L95.2773 15.1165C95.1457 15.6142 94.9818 16.1029 94.7867 16.5795C94.6267 16.9867 94.41 17.3693 94.1427 17.7158C93.9085 18.0168 93.6122 18.264 93.2739 18.4405C92.9194 18.6156 92.5279 18.7031 92.1325 18.6957H91.9144V18.9611H97.6418V18.6957H97.3659C97.0022 18.7011 96.6456 18.5954 96.3437 18.3929C96.0892 18.201 95.8991 17.9364 95.7986 17.6342C95.6765 17.2716 95.6188 16.8904 95.6282 16.508C95.6331 16.0209 95.6856 15.5355 95.7849 15.0586L96.1768 13.4459H100.65L101.414 16.6135C101.557 17.4334 101.499 17.9744 101.247 18.267C100.994 18.5596 100.456 18.6923 99.635 18.6923H99.2943V18.9577H108.477V18.6923H107.996C107.674 18.6836 107.353 18.6356 107.042 18.5494ZM96.2926 12.9696L98.4016 4.12361L100.535 12.9696H96.2926Z" fill="#FAFAFA"/>
<path d="M142.173 10.7921C141.807 10.3705 141.349 10.0387 140.834 9.82245C140.19 9.5641 139.504 9.42573 138.81 9.41417C139.371 9.20206 139.895 8.90359 140.364 8.52958C140.767 8.21146 141.112 7.82718 141.386 7.3932C141.636 6.994 141.821 6.5576 141.934 6.10033C142.043 5.65479 142.099 5.19801 142.101 4.73941C142.098 4.17011 141.982 3.60706 141.761 3.08248C141.545 2.55718 141.214 2.08649 140.793 1.70455C140.325 1.28794 139.776 0.97077 139.182 0.772318C138.46 0.534478 137.703 0.419466 136.943 0.432088H129.921V0.697467H130.231C130.577 0.683281 130.921 0.75827 131.229 0.915214C131.496 1.06876 131.714 1.29543 131.856 1.56846C132.029 1.90541 132.144 2.26878 132.197 2.64359C132.268 3.13615 132.307 3.6328 132.313 4.13039V14.9259C132.317 15.4667 132.292 16.0073 132.238 16.5454C132.201 16.9494 132.102 17.3453 131.945 17.7192C131.82 18.0081 131.615 18.2557 131.355 18.4337C131.06 18.6075 130.724 18.6991 130.381 18.6991H130.262C129.934 18.6904 129.609 18.6412 129.294 18.5528C129.04 18.4782 128.806 18.3454 128.613 18.1649C128.401 17.9702 128.226 17.7399 128.095 17.4844C127.922 17.1416 127.787 16.7811 127.693 16.4093L123.737 0.418478H118.354V0.683859H118.585C119.839 0.683859 120.484 1.3371 120.521 2.64359L117.533 15.1198C117.401 15.6176 117.237 16.1063 117.042 16.5828C116.882 16.9901 116.665 17.3726 116.398 17.7192C116.164 18.0202 115.867 18.2674 115.529 18.4439C115.175 18.619 114.783 18.7065 114.388 18.6991H114.17V18.9644H119.897V18.6991H119.621C119.263 18.701 118.913 18.5955 118.616 18.3963C118.357 18.2049 118.163 17.9389 118.061 17.6341C117.935 17.2687 117.875 16.884 117.884 16.4978C117.888 16.0107 117.941 15.5253 118.04 15.0484L118.432 13.4459H122.906L123.669 16.6135C123.812 17.4334 123.754 17.9744 123.502 18.267C123.25 18.5596 122.711 18.6923 121.89 18.6923H121.55V18.9576H136.95C137.951 18.9833 138.949 18.8359 139.9 18.5221C140.606 18.2802 141.252 17.8905 141.795 17.379C142.26 16.9193 142.611 16.3562 142.817 15.7357C143.024 15.116 143.129 14.4667 143.127 13.8134C143.13 13.257 143.051 12.7032 142.892 12.17C142.75 11.6662 142.505 11.1971 142.173 10.7921ZM118.548 12.9696L120.657 4.12359L122.786 12.9696H118.548ZM136.132 0.830157H136.408C136.655 0.830029 136.898 0.897068 137.11 1.02409C137.359 1.18288 137.558 1.40796 137.686 1.67393C137.875 2.06126 138.007 2.47378 138.078 2.89876C138.186 3.53709 138.235 4.18398 138.224 4.83127C138.224 6.21941 138.062 7.27186 137.737 7.98861C137.587 8.33373 137.367 8.64405 137.091 8.89996C136.814 9.15586 136.488 9.35181 136.132 9.47542V0.830157ZM138.79 16.0997C138.728 16.5935 138.593 17.0752 138.388 17.5287C138.253 17.8418 138.036 18.1131 137.761 18.3146C137.516 18.478 137.227 18.5624 136.933 18.5562H136.129V10.0674L136.698 9.99257C137.055 10.006 137.402 10.1155 137.701 10.3096C138.001 10.5036 138.243 10.7749 138.401 11.0949C138.797 11.9793 138.978 12.9446 138.929 13.912C138.938 14.6437 138.891 15.375 138.79 16.0997Z" fill="#FAFAFA"/>
<path d="M156.064 2.3646C155.496 1.61301 154.76 1.00474 153.914 0.5886C153.135 0.207595 152.28 0.00863374 151.413 0.00680607C150.549 0.00790691 149.697 0.206946 148.923 0.5886C148.081 1.00607 147.348 1.61424 146.783 2.3646C146.102 3.27233 145.592 4.29603 145.277 5.38585C144.875 6.78094 144.685 8.22818 144.711 9.67956C144.684 11.1298 144.875 12.576 145.277 13.9699C145.591 15.061 146.101 16.086 146.783 16.9945C147.351 17.7451 148.083 18.357 148.923 18.7841C149.695 19.1721 150.548 19.3748 151.413 19.3761C152.281 19.374 153.137 19.1714 153.914 18.7841C154.757 18.3583 155.493 17.7463 156.064 16.9945C156.746 16.086 157.256 15.061 157.57 13.9699C157.977 12.5767 158.172 11.1305 158.149 9.67956C158.176 8.22818 157.985 6.78094 157.584 5.38585C157.265 4.29506 156.75 3.27131 156.064 2.3646ZM153.768 14.225C153.676 15.1871 153.493 16.1383 153.222 17.066C153.079 17.6143 152.807 18.1205 152.429 18.5426C152.201 18.7911 151.886 18.9422 151.549 18.9645C151.209 18.9429 150.89 18.7948 150.653 18.5494C150.265 18.127 149.977 17.6222 149.812 17.0728C149.505 16.1496 149.293 15.1977 149.178 14.2318C148.988 12.7243 148.895 11.2059 148.902 9.68637C148.853 8.17757 148.902 6.66717 149.049 5.1647C149.139 4.20137 149.326 3.24958 149.607 2.32378C149.754 1.7828 150.021 1.28167 150.388 0.857383C150.611 0.609504 150.923 0.45822 151.256 0.435496C151.602 0.455532 151.928 0.606387 152.166 0.857383C152.555 1.27972 152.843 1.78458 153.008 2.33398C153.311 3.25808 153.523 4.20957 153.641 5.17491C154.017 8.18345 154.06 11.2242 153.768 14.2421V14.225Z" fill="#FAFAFA"/>
<path d="M166.03 10.1865H166.517C166.75 10.1954 166.98 10.2402 167.199 10.3192C167.387 10.397 167.541 10.541 167.631 10.7241C167.75 10.968 167.826 11.2303 167.856 11.4998C167.907 11.9085 167.937 12.3196 167.945 12.7314V18.3214C167.763 18.4347 167.552 18.4927 167.338 18.4881C166.859 18.4799 166.399 18.3041 166.037 17.9914C165.554 17.5615 165.185 17.0192 164.963 16.4127C164.62 15.5293 164.382 14.609 164.251 13.6705C164.061 12.3488 163.973 11.0147 163.986 9.67956C163.975 8.2502 164.043 6.82133 164.19 5.39946C164.286 4.42513 164.489 3.46437 164.797 2.53472C164.985 1.92955 165.317 1.37869 165.764 0.928829C166.113 0.599843 166.575 0.417171 167.055 0.418484C167.189 0.40956 167.323 0.436384 167.442 0.496189C167.562 0.555994 167.664 0.646616 167.737 0.758714C167.891 1.01895 167.997 1.30475 168.05 1.60249C168.115 1.94272 168.173 2.31357 168.224 2.72865C168.273 3.12939 168.371 3.52253 168.517 3.89904C168.604 4.17343 168.768 4.41685 168.991 4.59992C169.16 4.74774 169.373 4.83584 169.597 4.8506C169.821 4.86536 170.044 4.80596 170.231 4.68157C170.434 4.55115 170.591 4.36089 170.681 4.1372C170.792 3.85294 170.836 3.54641 170.807 3.2424C170.767 2.82002 170.644 2.40962 170.446 2.03458C170.3 1.72403 170.102 1.4409 169.859 1.19761C169.614 0.94611 169.334 0.730741 169.028 0.557978C168.726 0.380425 168.402 0.242085 168.064 0.146299C167.74 0.0506832 167.404 0.00142695 167.066 0C166.135 0.00176693 165.218 0.220812 164.388 0.639634C163.492 1.10135 162.711 1.75693 162.101 2.55853C161.385 3.49834 160.843 4.55837 160.5 5.68866C160.073 7.09419 159.868 8.55788 159.894 10.0266C159.874 11.4099 160.045 12.7894 160.401 14.1264C160.682 15.1888 161.153 16.1917 161.791 17.0864C162.319 17.8324 163.02 18.4386 163.836 18.8522C164.621 19.2391 165.493 19.415 166.367 19.3625L170.94 19.2877V13.2826C170.933 12.7652 170.963 12.2479 171.028 11.7346C171.066 11.4117 171.145 11.095 171.263 10.7921C171.332 10.6065 171.449 10.443 171.604 10.3192C171.72 10.2341 171.859 10.1877 172.003 10.1865V9.92112H166.03V10.1865Z" fill="#FAFAFA"/>
<path d="M199.158 2.37821C198.539 1.69786 197.765 1.17623 196.902 0.857375C196.107 0.56769 195.268 0.416918 194.422 0.411672H187.894V0.677053H188.169C188.518 0.664109 188.863 0.738999 189.175 0.8948C189.445 1.04607 189.666 1.27317 189.808 1.54804C189.986 1.88307 190.101 2.24727 190.149 2.62317C190.212 3.11643 190.249 3.61277 190.258 4.10998V14.9259C190.262 15.4669 190.235 16.0076 190.176 16.5454C190.143 16.9488 190.047 17.3447 189.894 17.7192C189.775 18.0111 189.571 18.2603 189.307 18.4337C189.008 18.6065 188.669 18.698 188.323 18.6991H188.132C187.805 18.6904 187.48 18.6412 187.164 18.5528C186.91 18.4782 186.677 18.3454 186.483 18.1649C186.271 17.9711 186.095 17.7406 185.965 17.4844C185.791 17.1423 185.656 16.7816 185.563 16.4093L181.618 0.418477H176.227V0.683858H176.463C177.713 0.683858 178.36 1.3371 178.398 2.64359L175.41 15.1198C175.277 15.6171 175.113 16.1057 174.919 16.5828C174.759 16.9901 174.542 17.3726 174.275 17.7192C174.041 18.0202 173.745 18.2674 173.406 18.4439C173.051 18.619 172.658 18.7065 172.262 18.6991H172.047V18.9644H177.771V18.6991H177.498C177.14 18.7016 176.79 18.5961 176.493 18.3963C176.234 18.2042 176.04 17.9386 175.934 17.6341C175.812 17.2681 175.753 16.8837 175.761 16.4978C175.766 16.0107 175.818 15.5253 175.917 15.0484L176.306 13.4459H180.783L181.543 16.6135C181.686 17.4334 181.631 17.9744 181.379 18.267C181.127 18.5596 180.585 18.6923 179.764 18.6923H179.423V18.9576H194.432C195.278 18.9524 196.117 18.8016 196.912 18.5119C197.775 18.195 198.548 17.6758 199.168 16.9979C199.909 16.1712 200.472 15.2005 200.82 14.1468C201.288 12.7027 201.505 11.1898 201.464 9.67275C201.506 8.16013 201.288 6.65149 200.82 5.21233C200.467 4.16351 199.901 3.1987 199.158 2.37821ZM176.425 12.9696L178.534 4.12359L180.664 12.9696H176.425ZM197.018 13.9903C196.922 14.9168 196.724 15.8297 196.425 16.7121C196.256 17.2579 195.945 17.7495 195.526 18.1377C195.216 18.3986 194.826 18.5442 194.422 18.5494H194.081V0.830156H194.422C194.826 0.835365 195.216 0.9809 195.526 1.24184C195.943 1.6263 196.253 2.11299 196.425 2.65379C196.725 3.53575 196.924 4.44888 197.018 5.37564C197.18 6.80893 197.253 8.25087 197.236 9.69316C197.252 11.1298 197.179 12.566 197.018 13.9937V13.9903Z" fill="#FAFAFA"/>
<path d="M214.449 2.3646C213.881 1.61301 213.144 1.00474 212.299 0.5886C211.52 0.207595 210.665 0.00863374 209.798 0.00680607C208.934 0.00790691 208.082 0.206946 207.307 0.5886C206.465 1.00607 205.732 1.61424 205.168 2.3646C204.487 3.27233 203.976 4.29603 203.662 5.38585C203.26 6.78094 203.069 8.22818 203.096 9.67956C203.069 11.1298 203.26 12.576 203.662 13.9699C203.976 15.061 204.486 16.086 205.168 16.9945C205.736 17.7451 206.468 18.357 207.307 18.7841C208.08 19.1721 208.933 19.3748 209.798 19.3761C210.666 19.374 211.522 19.1714 212.299 18.7841C213.142 18.3583 213.877 17.7463 214.449 16.9945C215.128 16.0844 215.638 15.0599 215.955 13.9699C216.355 12.5757 216.546 11.1298 216.52 9.67956C216.545 8.22827 216.355 6.78129 215.955 5.38585C215.637 4.29714 215.127 3.27393 214.449 2.3646ZM212.152 14.225C212.061 15.1874 211.878 16.1388 211.604 17.066C211.463 17.6145 211.192 18.121 210.813 18.5426C210.586 18.7911 210.271 18.9422 209.934 18.9645C209.588 18.9444 209.263 18.7936 209.024 18.5426C208.637 18.1199 208.35 17.6151 208.186 17.066C207.881 16.1424 207.669 15.1907 207.553 14.225C207.365 12.7172 207.274 11.199 207.28 9.67956C207.231 8.17076 207.28 6.66037 207.426 5.1579C207.517 4.19457 207.704 3.24277 207.985 2.31697C208.133 1.77702 208.402 1.27783 208.772 0.857383C208.996 0.609504 209.308 0.45822 209.641 0.435496C209.987 0.455532 210.312 0.606387 210.551 0.857383C210.94 1.27899 211.227 1.78418 211.389 2.33398C211.695 3.25745 211.909 4.20913 212.026 5.17491C212.216 6.67504 212.32 8.18466 212.34 9.69658C212.364 11.2084 212.301 12.7204 212.152 14.225Z" fill="#FAFAFA"/>
<path d="M228.411 11.6733C228.292 10.9449 228.05 10.242 227.696 9.59448C227.334 8.94275 226.859 8.36086 226.292 7.87631C225.641 7.33601 224.906 6.90718 224.115 6.60726C223.574 6.40348 223.05 6.16129 222.544 5.88256C222.17 5.67647 221.826 5.42003 221.522 5.12045C221.279 4.88164 221.083 4.59874 220.946 4.28688C220.82 3.99653 220.75 3.6847 220.742 3.36826C220.712 2.99651 220.758 2.62261 220.878 2.26932C220.991 1.92905 221.166 1.61287 221.396 1.33708C221.619 1.06807 221.893 0.846025 222.203 0.683841C222.53 0.519991 222.891 0.437128 223.256 0.442276C223.786 0.423919 224.306 0.58588 224.731 0.901588C225.154 1.23892 225.492 1.66992 225.719 2.16044C226 2.75534 226.2 3.38451 226.316 4.03171C226.459 4.79573 226.56 5.56692 226.619 6.34188H226.96L227.702 0.442276H227.447C227.416 0.599245 227.33 0.740193 227.205 0.840347C227.061 0.964087 226.885 1.04434 226.697 1.0717C226.471 1.10439 226.24 1.09633 226.016 1.04789C225.751 0.988077 225.505 0.862923 225.3 0.683841L225.478 0.94922C225.157 0.658822 224.786 0.428341 224.384 0.268759C224.017 0.11999 223.625 0.0415063 223.229 0.0374024C222.724 0.0355748 222.223 0.130274 221.754 0.316391C221.306 0.494034 220.888 0.73837 220.513 1.04108C220.151 1.33706 219.838 1.68845 219.587 2.08219C219.341 2.4567 219.159 2.86948 219.048 3.30362C218.84 4.04285 218.741 4.80855 218.755 5.57636C218.763 6.32405 218.903 7.06452 219.168 7.76404C219.432 8.45613 219.837 9.08623 220.357 9.61489C220.938 10.1909 221.648 10.6211 222.428 10.8703C223.109 11.1007 223.768 11.3875 224.401 11.7277C224.878 11.9831 225.311 12.314 225.682 12.7076C225.991 13.0399 226.224 13.4359 226.363 13.8678C226.496 14.3158 226.556 14.7822 226.541 15.2491C226.526 15.7236 226.442 16.1935 226.292 16.6441C226.142 17.0785 225.911 17.4804 225.61 17.8281C225.303 18.1711 224.932 18.4508 224.517 18.6514C224.064 18.8645 223.569 18.9716 223.069 18.9644C222.408 18.9791 221.763 18.7651 221.242 18.3588C220.707 17.9312 220.274 17.391 219.972 16.7767C219.626 16.0787 219.386 15.3335 219.259 14.5652C219.115 13.7343 219.069 12.8892 219.123 12.0475H218.782L217.784 18.9882H218.04C218.068 18.7661 218.174 18.5611 218.34 18.4099C218.514 18.2596 218.728 18.1628 218.956 18.1309C219.235 18.092 219.518 18.1129 219.788 18.1921C220.121 18.2839 220.439 18.4213 220.735 18.6004C221.381 19.1228 222.189 19.4053 223.021 19.3999C223.693 19.401 224.359 19.2656 224.977 19.0019C225.609 18.7339 226.186 18.3521 226.68 17.8757C227.733 16.8538 228.388 15.4909 228.527 14.0311C228.59 13.2434 228.551 12.451 228.411 11.6733Z" fill="#FAFAFA"/>
</svg>
