<svg width="360" height="360" viewBox="0 0 360 360" fill="none" xmlns="http://www.w3.org/2000/svg">
<path d="M316.156 279.074C311.899 278.994 307.663 278.459 303.517 277.477C300.21 276.703 297.1 275.226 294.393 273.145C291.685 271.063 289.44 268.423 287.804 265.398C285.632 261.489 283.902 257.342 282.646 253.037L280.324 244.985L232.448 80.9258L231.59 78H162.262V80.9258H165.613C171.269 80.9258 175.864 82.1247 179.4 84.5226C182.907 86.8877 185.576 90.3362 187.012 94.3603C188.646 99.136 189.305 104.2 188.951 109.244C188.586 115.672 187.592 122.048 185.983 128.275L165.798 204.977L157.46 234.503V109.808C158.731 109.399 159.816 108.542 160.519 107.39C161.222 106.238 161.497 104.869 161.293 103.529C161.09 102.189 160.422 100.968 159.411 100.085C158.399 99.2028 157.111 98.7177 155.778 98.7177C154.446 98.7177 153.157 99.2028 152.145 100.085C151.134 100.968 150.466 102.189 150.263 103.529C150.06 104.869 150.334 106.238 151.037 107.39C151.741 108.542 152.825 109.399 154.096 109.808V232.597L124.874 121.887C123.184 116.096 121.931 110.183 121.127 104.198C120.489 99.9936 120.668 95.7027 121.655 91.5687C122.506 88.318 124.588 85.5429 127.447 83.8516C130.376 82.0263 134.412 81.1137 139.518 80.9258H144.795V78H38V80.9258H44.4512C49.1068 80.961 53.7071 81.9563 57.9738 83.8516C61.7217 85.6596 65.0255 88.2961 67.6441 91.5687C70.6302 95.3619 72.9834 99.6285 74.6098 104.198C76.492 109.244 78.3786 115.141 80.2695 121.887L121.418 278.672L122.368 282H185.693V279.074H182.091C176.242 278.904 171.642 277.75 168.291 275.612C164.995 273.555 162.494 270.409 161.207 266.7C159.761 262.296 159.31 257.617 159.888 253.011C160.059 251.306 160.297 249.521 160.6 247.642L167.474 221.323L168.318 218.049L168.608 217.082L168.925 216.009L195.93 120.343V227.806C194.66 228.214 193.575 229.072 192.872 230.224C192.169 231.375 191.894 232.745 192.097 234.085C192.3 235.424 192.968 236.646 193.98 237.528C194.991 238.411 196.28 238.896 197.612 238.896C198.945 238.896 200.233 238.411 201.245 237.528C202.257 236.646 202.924 235.424 203.128 234.085C203.331 232.745 203.056 231.375 202.353 230.224C201.65 229.072 200.565 228.214 199.294 227.806C199.294 186.075 199.294 162.678 199.294 120.947L226.379 216.009V216.089L226.735 217.311L227.923 221.337L236.696 251.923C237.745 256.108 238.39 260.388 238.622 264.7C238.825 267.583 238.153 270.46 236.696 272.941C235.112 275.215 232.766 276.823 230.099 277.464C226.267 278.47 222.329 279.006 218.371 279.061H209.862V282H322V279.074H316.156Z" fill="#861546"/>
</svg>
